<?xml version="1.0" encoding="UTF-8"?>
<mxfile host="app.diagrams.net" modified="17-vulnerability-scanning-patch-flow" agent="PlantUML Converter" version="1.0" etag="plantuml-diagram" type="device">
  <diagram id="plantuml-17-vulnerability-scanning-patch-flow" name="17-vulnerability-scanning-patch-flow">
    <mxGraphModel dx="1422" dy="794" grid="1" gridSize="10" guides="1" tooltips="1" connect="1" arrows="1" fold="1" page="1" pageScale="1" pageWidth="827" pageHeight="1169" math="0" shadow="0">
      <root>
        <mxCell id="0" />
        <mxCell id="1" parent="0" />
        <mxCell id="plantuml-container" value="" style="shape=image;html=1;verticalAlign=top;verticalLabelPosition=bottom;labelBackgroundColor=#ffffff;imageAspect=0;aspect=fixed;image=data:image/svg+xml,PHN2ZyB4bWxucz0iaHR0cDovL3d3dy53My5vcmcvMjAwMC9zdmciIHdpZHRoPSI0MDAiIGhlaWdodD0iMzAwIiB2aWV3Qm94PSIwIDAgNDAwIDMwMCI+CiAgPHJlY3Qgd2lkdGg9IjQwMCIgaGVpZ2h0PSIzMDAiIGZpbGw9IiNmOGY5ZmEiIHN0cm9rZT0iI2RlZTJlNiIvPgogIDx0ZXh0IHg9IjIwMCIgeT0iMTUwIiB0ZXh0LWFuY2hvcj0ibWlkZGxlIiBmb250LWZhbWlseT0iQXJpYWwiIGZvbnQtc2l6ZT0iMTQiIGZpbGw9IiM2Yzc1N2QiPgogICAgRGlhZ3JhbWEgUGxhbnRVTUw6IDE3LXZ1bG5lcmFiaWxpdHktc2Nhbm5pbmctcGF0Y2gtZmxvdwogIDwvdGV4dD4KICA8dGV4dCB4PSIyMDAiIHk9IjE3MCIgdGV4dC1hbmNob3I9Im1pZGRsZSIgZm9udC1mYW1pbHk9IkFyaWFsIiBmb250LXNpemU9IjEyIiBmaWxsPSIjNmM3NTdkIj4KICAgIChTVkcgbsOjbyBkaXNwb27DrXZlbCAtIHVzZSBvIGPDs2RpZ28gUGxhbnRVTUwgaW5jb3Jwb3JhZG8pCiAgPC90ZXh0Pgo8L3N2Zz4=;plantuml=QHN0YXJ0dW1sCiF0aGVtZSBwbGFpbgp0aXRsZSBWdWxuZXJhYmlsaXR5IFNjYW5uaW5nIGFuZCBQYXRjaCBNYW5hZ2VtZW50IFdvcmtmbG93CgphY3RvciAiU2VjdXJpdHkgVGVhbSIgYXMgc2VjdXJpdHkKYWN0b3IgIlN5c3RlbSBBZG1pbmlzdHJhdG9yIiBhcyBhZG1pbgphY3RvciAiRGV2ZWxvcGVyIiBhcyBkZXYKcGFydGljaXBhbnQgIlZ1bG5lcmFiaWxpdHkgU2Nhbm5lciIgYXMgc2Nhbm5lcgpwYXJ0aWNpcGFudCAiQXNzZXQgSW52ZW50b3J5IiBhcyBpbnZlbnRvcnkKcGFydGljaXBhbnQgIlZ1bG5lcmFiaWxpdHkgRGF0YWJhc2UiIGFzIHZ1bG5kYgpwYXJ0aWNpcGFudCAiUGF0Y2ggTWFuYWdlbWVudCBTeXN0ZW0iIGFzIHBhdGNobWdtdApwYXJ0aWNpcGFudCAiVGVzdCBFbnZpcm9ubWVudCIgYXMgdGVzdGVudgpwYXJ0aWNpcGFudCAiUHJvZHVjdGlvbiBTZXJ2ZXIiIGFzIHByb2RzZXJ2ZXIKcGFydGljaXBhbnQgIkNvbmZpZ3VyYXRpb24gTWFuYWdlbWVudCIgYXMgY29uZmlnCnBhcnRpY2lwYW50ICJNb25pdG9yaW5nIFN5c3RlbSIgYXMgbW9uaXRvcgpwYXJ0aWNpcGFudCAiTm90aWZpY2F0aW9uIFN5c3RlbSIgYXMgbm90aWZ5CnBhcnRpY2lwYW50ICJDb21wbGlhbmNlIERhc2hib2FyZCIgYXMgY29tcGxpYW5jZQoKbm90ZSBvdmVyIHNlY3VyaXR5LCBjb21wbGlhbmNlCiAgQXV0b21hdGVkIHZ1bG5lcmFiaWxpdHkgc2Nhbm5pbmcgYW5kIHBhdGNoIG1hbmFnZW1lbnQKICBlbnN1cmVzIHN5c3RlbXMgcmVtYWluIHNlY3VyZSBhbmQgY29tcGxpYW50CmVuZCBub3RlCgo9PSBBc3NldCBEaXNjb3ZlcnkgYW5kIEludmVudG9yeSA9PQoKc2VjdXJpdHkgLT4gaW52ZW50b3J5OiAxLiBJbml0aWF0ZSBhc3NldCBkaXNjb3ZlcnlcbihzY2hlZHVsZWQgc2NhbikKYWN0aXZhdGUgaW52ZW50b3J5CgppbnZlbnRvcnkgLT4gaW52ZW50b3J5OiAyLiBOZXR3b3JrIHNjYW5uaW5nOlxuLSBQb3J0IHNjYW5uaW5nXG4tIFNlcnZpY2UgZGV0ZWN0aW9uXG4tIE9TIGZpbmdlcnByaW50aW5nXG4tIEFwcGxpY2F0aW9uIGlkZW50aWZpY2F0aW9uXG4tIFZlcnNpb24gZGV0ZWN0aW9uCgppbnZlbnRvcnkgLT4gaW52ZW50b3J5OiAzLiBBc3NldCBjbGFzc2lmaWNhdGlvbjpcbi0gQ3JpdGljYWwgc3lzdGVtc1xuLSBCdXNpbmVzcyBhcHBsaWNhdGlvbnNcbi0gRGV2ZWxvcG1lbnQgZW52aXJvbm1lbnRzXG4tIE5ldHdvcmsgaW5mcmFzdHJ1Y3R1cmVcbi0gRW5kLXVzZXIgZGV2aWNlcwoKaW52ZW50b3J5IC0+IHNjYW5uZXI6IDQuIFVwZGF0ZWQgYXNzZXQgbGlzdFxuKHNjYW4gdGFyZ2V0cykKYWN0aXZhdGUgc2Nhbm5lcgoKZGVhY3RpdmF0ZSBpbnZlbnRvcnkKCj09IFZ1bG5lcmFiaWxpdHkgU2Nhbm5pbmcgPT0KCnNjYW5uZXIgLT4gc2Nhbm5lcjogNS4gU2NhbiBjb25maWd1cmF0aW9uOlxuLSBTY2FuIHBvbGljaWVzXG4tIENyZWRlbnRpYWwgbWFuYWdlbWVudFxuLSBTY2FuIHNjaGVkdWxpbmdcbi0gVGFyZ2V0IHByaW9yaXRpemF0aW9uXG4tIENvbXBsaWFuY2UgZnJhbWV3b3JrcwoKc2Nhbm5lciAtPiBwcm9kc2VydmVyOiA2LiBBdXRoZW50aWNhdGVkIHNjYW5cbihjcmVkZW50aWFsZWQgYXNzZXNzbWVudCkKYWN0aXZhdGUgcHJvZHNlcnZlcgoKcHJvZHNlcnZlciAtLT4gc2Nhbm5lcjogNy4gU3lzdGVtIGluZm9ybWF0aW9uXG4oT1MsIHNlcnZpY2VzLCBjb25maWdzKQpkZWFjdGl2YXRlIHByb2RzZXJ2ZXIKCnNjYW5uZXIgLT4gdnVsbmRiOiA4LiBWdWxuZXJhYmlsaXR5IGxvb2t1cFxuKENWRSBkYXRhYmFzZSBxdWVyeSkKYWN0aXZhdGUgdnVsbmRiCgp2dWxuZGIgLS0+IHNjYW5uZXI6IDkuIFZ1bG5lcmFiaWxpdHkgZGF0YVxuKENWRSBkZXRhaWxzLCBDVlNTIHNjb3JlcykKZGVhY3RpdmF0ZSB2dWxuZGIKCnNjYW5uZXIgLT4gc2Nhbm5lcjogMTAuIFZ1bG5lcmFiaWxpdHkgYW5hbHlzaXM6XG4tIENWRSBtYXRjaGluZ1xuLSBDVlNTIHNjb3Jpbmdcbi0gRXhwbG9pdGFiaWxpdHkgYXNzZXNzbWVudFxuLSBBc3NldCBjcml0aWNhbGl0eSBtYXBwaW5nXG4tIFJpc2sgcHJpb3JpdGl6YXRpb24KCj09IFJpc2sgQXNzZXNzbWVudCBhbmQgUHJpb3JpdGl6YXRpb24gPT0KCnNjYW5uZXIgLT4gc2Nhbm5lcjogMTEuIFJpc2sgY2FsY3VsYXRpb246XG4tIENWU1MgYmFzZSBzY29yZVxuLSBFbnZpcm9ubWVudGFsIGZhY3RvcnNcbi0gQXNzZXQgY3JpdGljYWxpdHlcbi0gVGhyZWF0IGludGVsbGlnZW5jZVxuLSBCdXNpbmVzcyBpbXBhY3QKCmFsdCBDcml0aWNhbCBWdWxuZXJhYmlsaXR5IChDVlNTIDkuMCspCiAgICBzY2FubmVyIC0+IG5vdGlmeTogMTJhLiBDcml0aWNhbCBhbGVydFxuKGltbWVkaWF0ZSBub3RpZmljYXRpb24pCiAgICBhY3RpdmF0ZSBub3RpZnkKICAgIAogICAgbm90aWZ5IC0+IHNlY3VyaXR5OiAxM2EuIEVtZXJnZW5jeSBub3RpZmljYXRpb25cbihTTVMsIGVtYWlsLCBTbGFjaykKICAgIGFjdGl2YXRlIHNlY3VyaXR5CiAgICAKICAgIG5vdGlmeSAtPiBhZG1pbjogMTRhLiBVcmdlbnQgcGF0Y2ggcmVxdWlyZWRcbihjcml0aWNhbCBzeXN0ZW0gYWxlcnQpCiAgICBhY3RpdmF0ZSBhZG1pbgogICAgCiAgICBzZWN1cml0eSAtPiBzZWN1cml0eTogMTVhLiBFbWVyZ2VuY3kgcmVzcG9uc2U6XG4gICAgLSBJbmNpZGVudCBhY3RpdmF0aW9uXG4gICAgLSBSaXNrIGFzc2Vzc21lbnRcbiAgICAtIE1pdGlnYXRpb24gcGxhbm5pbmdcbiAgICAtIFJlc291cmNlIGFsbG9jYXRpb24KICAgIAplbHNlIEhpZ2ggVnVsbmVyYWJpbGl0eSAoQ1ZTUyA3LjAtOC45KQogICAgc2Nhbm5lciAtPiBub3RpZnk6IDEyYi4gSGlnaCBwcmlvcml0eSBhbGVydFxuKHNjaGVkdWxlZCBub3RpZmljYXRpb24pCiAgICBhY3RpdmF0ZSBub3RpZnkKICAgIAogICAgbm90aWZ5IC0+IHNlY3VyaXR5OiAxM2IuIFByaW9yaXR5IG5vdGlmaWNhdGlvblxuKGRhaWx5IGRpZ2VzdCkKICAgIGFjdGl2YXRlIHNlY3VyaXR5CiAgICAKICAgIG5vdGlmeSAtPiBhZG1pbjogMTRiLiBQYXRjaCBwbGFubmluZyByZXF1aXJlZFxuKHdlZWtseSByZXBvcnQpCiAgICBhY3RpdmF0ZSBhZG1pbgogICAgCmVsc2UgTWVkaXVtL0xvdyBWdWxuZXJhYmlsaXR5CiAgICBzY2FubmVyIC0+IGNvbXBsaWFuY2U6IDEyYy4gU3RhbmRhcmQgcmVwb3J0aW5nXG4oY29tcGxpYW5jZSB0cmFja2luZykKICAgIGFjdGl2YXRlIGNvbXBsaWFuY2UKICAgIAogICAgY29tcGxpYW5jZSAtPiBzZWN1cml0eTogMTNjLiBSZWd1bGFyIHJlcG9ydFxuKG1vbnRobHkgc3VtbWFyeSkKICAgIGFjdGl2YXRlIHNlY3VyaXR5CiAgICAKICAgIGNvbXBsaWFuY2UgLT4gYWRtaW46IDE0Yy4gTWFpbnRlbmFuY2Ugd2luZG93XG4oc2NoZWR1bGVkIHBhdGNoaW5nKQogICAgYWN0aXZhdGUgYWRtaW4KZW5kCgpkZWFjdGl2YXRlIG5vdGlmeQoKPT0gUGF0Y2ggQXZhaWxhYmlsaXR5IENoZWNrID09CgpzZWN1cml0eSAtPiBwYXRjaG1nbXQ6IDE2LiBDaGVjayBwYXRjaCBhdmFpbGFiaWxpdHlcbih2ZW5kb3IgYWR2aXNvcmllcykKYWN0aXZhdGUgcGF0Y2htZ210CgpwYXRjaG1nbXQgLT4gcGF0Y2htZ210OiAxNy4gUGF0Y2ggcmVzZWFyY2g6XG4tIFZlbmRvciBidWxsZXRpbnNcbi0gU2VjdXJpdHkgYWR2aXNvcmllc1xuLSBQYXRjaCBjb21wYXRpYmlsaXR5XG4tIEtub3duIGlzc3Vlc1xuLSBSb2xsYmFjayBwcm9jZWR1cmVzCgphbHQgUGF0Y2ggQXZhaWxhYmxlCiAgICBwYXRjaG1nbXQgLT4gcGF0Y2htZ210OiAxOGEuIFBhdGNoIHZhbGlkYXRpb246XG4gICAgLSBEaWdpdGFsIHNpZ25hdHVyZVxuICAgIC0gQ2hlY2tzdW0gdmVyaWZpY2F0aW9uXG4gICAgLSBTb3VyY2UgYXV0aGVudGljaXR5XG4gICAgLSBDb21wYXRpYmlsaXR5IGNoZWNrCiAgICAKICAgIHBhdGNobWdtdCAtPiB0ZXN0ZW52OiAxOWEuIERlcGxveSB0byB0ZXN0XG4ocGF0Y2ggdGVzdGluZykKICAgIGFjdGl2YXRlIHRlc3RlbnYKICAgIAplbHNlIE5vIFBhdGNoIEF2YWlsYWJsZQogICAgcGF0Y2htZ210IC0+IHNlY3VyaXR5OiAxOGIuIFdvcmthcm91bmQgcmVzZWFyY2hcbihtaXRpZ2F0aW9uIHN0cmF0ZWdpZXMpCiAgICAKICAgIHNlY3VyaXR5IC0+IHNlY3VyaXR5OiAxOWIuIFJpc2sgbWl0aWdhdGlvbjpcbiAgICAtIENvbmZpZ3VyYXRpb24gY2hhbmdlc1xuICAgIC0gQWNjZXNzIHJlc3RyaWN0aW9uc1xuICAgIC0gTW9uaXRvcmluZyBlbmhhbmNlbWVudFxuICAgIC0gQ29tcGVuc2F0aW5nIGNvbnRyb2xzCiAgICAKICAgIHNlY3VyaXR5IC0+IGNvbmZpZzogMjBiLiBBcHBseSB3b3JrYXJvdW5kc1xuKHRlbXBvcmFyeSBtaXRpZ2F0aW9uKQogICAgYWN0aXZhdGUgY29uZmlnCiAgICAKICAgIGNvbmZpZyAtPiBwcm9kc2VydmVyOiAyMWIuIENvbmZpZ3VyYXRpb24gdXBkYXRlXG4oc2VjdXJpdHkgaGFyZGVuaW5nKQogICAgYWN0aXZhdGUgcHJvZHNlcnZlcgogICAgCiAgICBwcm9kc2VydmVyIC0tPiBjb25maWc6IDIyYi4gQ29uZmlndXJhdGlvbiBhcHBsaWVkCiAgICBkZWFjdGl2YXRlIHByb2RzZXJ2ZXIKICAgIGRlYWN0aXZhdGUgY29uZmlnCmVuZAoKPT0gUGF0Y2ggVGVzdGluZyA9PQoKdGVzdGVudiAtPiB0ZXN0ZW52OiAyMy4gVGVzdCBlbnZpcm9ubWVudCBzZXR1cDpcbi0gU3lzdGVtIHJlcGxpY2F0aW9uXG4tIERhdGEgc2FuaXRpemF0aW9uXG4tIE5ldHdvcmsgaXNvbGF0aW9uXG4tIE1vbml0b3Jpbmcgc2V0dXBcbi0gUm9sbGJhY2sgcHJlcGFyYXRpb24KCnRlc3RlbnYgLT4gdGVzdGVudjogMjQuIFBhdGNoIGluc3RhbGxhdGlvbjpcbi0gUHJlLXBhdGNoIGJhY2t1cFxuLSBQYXRjaCBkZXBsb3ltZW50XG4tIFN5c3RlbSByZXN0YXJ0XG4tIFNlcnZpY2UgdmFsaWRhdGlvblxuLSBGdW5jdGlvbmFsaXR5IHRlc3RpbmcKCmFsdCBUZXN0IFN1Y2Nlc3NmdWwKICAgIHRlc3RlbnYgLT4gcGF0Y2htZ210OiAyNWEuIFRlc3QgcmVzdWx0c1xuKHBhdGNoIGFwcHJvdmVkKQogICAgCiAgICBwYXRjaG1nbXQgLT4gYWRtaW46IDI2YS4gUGF0Y2ggYXBwcm92YWxcbihwcm9kdWN0aW9uIHJlYWR5KQogICAgCiAgICBhZG1pbiAtPiBhZG1pbjogMjdhLiBEZXBsb3ltZW50IHBsYW5uaW5nOlxuICAgIC0gTWFpbnRlbmFuY2Ugd2luZG93XG4gICAgLSBDaGFuZ2UgbWFuYWdlbWVudFxuICAgIC0gUm9sbGJhY2sgc3RyYXRlZ3lcbiAgICAtIENvbW11bmljYXRpb24gcGxhbgogICAgCmVsc2UgVGVzdCBGYWlsZWQKICAgIHRlc3RlbnYgLT4gcGF0Y2htZ210OiAyNWIuIFRlc3QgZmFpbHVyZVxuKGlzc3VlcyBpZGVudGlmaWVkKQogICAgCiAgICBwYXRjaG1nbXQgLT4gZGV2OiAyNmIuIERldmVsb3BtZW50IHJldmlld1xuKGNvbXBhdGliaWxpdHkgaXNzdWVzKQogICAgYWN0aXZhdGUgZGV2CiAgICAKICAgIGRldiAtPiBkZXY6IDI3Yi4gSXNzdWUgYW5hbHlzaXM6XG4gICAgLSBSb290IGNhdXNlIGFuYWx5c2lzXG4gICAgLSBDb2RlIGNvbXBhdGliaWxpdHlcbiAgICAtIERlcGVuZGVuY3kgY29uZmxpY3RzXG4gICAgLSBBbHRlcm5hdGl2ZSBzb2x1dGlvbnMKICAgIAogICAgZGV2IC0+IHBhdGNobWdtdDogMjhiLiBSZXNvbHV0aW9uIHBsYW5cbihmaXggb3IgYWx0ZXJuYXRpdmUpCiAgICBkZWFjdGl2YXRlIGRldgplbmQKCmRlYWN0aXZhdGUgdGVzdGVudgoKPT0gUHJvZHVjdGlvbiBEZXBsb3ltZW50ID09CgphZG1pbiAtPiBjb25maWc6IDI5LiBQcmUtZGVwbG95bWVudCBwcmVwXG4oY2hhbmdlIG1hbmFnZW1lbnQpCmFjdGl2YXRlIGNvbmZpZwoKY29uZmlnIC0+IGNvbmZpZzogMzAuIERlcGxveW1lbnQgcHJlcGFyYXRpb246XG4tIEJhY2t1cCB2ZXJpZmljYXRpb25cbi0gUm9sbGJhY2sgcHJvY2VkdXJlc1xuLSBNb25pdG9yaW5nIHNldHVwXG4tIFRlYW0gY29vcmRpbmF0aW9uXG4tIENvbW11bmljYXRpb24gcGxhbgoKY29uZmlnIC0+IHByb2RzZXJ2ZXI6IDMxLiBQYXRjaCBkZXBsb3ltZW50XG4obWFpbnRlbmFuY2Ugd2luZG93KQphY3RpdmF0ZSBwcm9kc2VydmVyCgpwcm9kc2VydmVyIC0+IHByb2RzZXJ2ZXI6IDMyLiBQYXRjaCBpbnN0YWxsYXRpb246XG4tIFNlcnZpY2Ugc2h1dGRvd25cbi0gQmFja3VwIGNyZWF0aW9uXG4tIFBhdGNoIGFwcGxpY2F0aW9uXG4tIFN5c3RlbSByZXN0YXJ0XG4tIFNlcnZpY2UgdmFsaWRhdGlvbgoKYWx0IERlcGxveW1lbnQgU3VjY2Vzc2Z1bAogICAgcHJvZHNlcnZlciAtPiBjb25maWc6IDMzYS4gRGVwbG95bWVudCBzdWNjZXNzXG4ocGF0Y2ggYXBwbGllZCkKICAgIAogICAgY29uZmlnIC0+IG1vbml0b3I6IDM0YS4gRW5hYmxlIG1vbml0b3Jpbmdcbihwb3N0LXBhdGNoIHZhbGlkYXRpb24pCiAgICBhY3RpdmF0ZSBtb25pdG9yCiAgICAKICAgIG1vbml0b3IgLT4gbW9uaXRvcjogMzVhLiBTeXN0ZW0gdmFsaWRhdGlvbjpcbiAgICAtIFBlcmZvcm1hbmNlIG1ldHJpY3NcbiAgICAtIEVycm9yIG1vbml0b3JpbmdcbiAgICAtIFNlcnZpY2UgYXZhaWxhYmlsaXR5XG4gICAgLSBTZWN1cml0eSBwb3N0dXJlXG4gICAgLSBVc2VyIGV4cGVyaWVuY2UKICAgIAogICAgbW9uaXRvciAtPiBhZG1pbjogMzZhLiBWYWxpZGF0aW9uIHJlc3VsdHNcbihzeXN0ZW0gaGVhbHRoeSkKICAgIAogICAgYWRtaW4gLT4gc2Nhbm5lcjogMzdhLiBUcmlnZ2VyIHJlc2NhblxuKHZ1bG5lcmFiaWxpdHkgdmVyaWZpY2F0aW9uKQogICAgCiAgICBzY2FubmVyIC0+IHNjYW5uZXI6IDM4YS4gVmVyaWZpY2F0aW9uIHNjYW46XG4gICAgLSBQYXRjaCB2YWxpZGF0aW9uXG4gICAgLSBWdWxuZXJhYmlsaXR5IHN0YXR1c1xuICAgIC0gQ29uZmlndXJhdGlvbiBjaGVja1xuICAgIC0gQ29tcGxpYW5jZSB2ZXJpZmljYXRpb24KICAgIAogICAgc2Nhbm5lciAtPiBjb21wbGlhbmNlOiAzOWEuIFNjYW4gcmVzdWx0c1xuKHZ1bG5lcmFiaWxpdHkgcmVzb2x2ZWQpCiAgICAKICAgIGNvbXBsaWFuY2UgLT4gc2VjdXJpdHk6IDQwYS4gQ29tcGxpYW5jZSB1cGRhdGVcbihwYXRjaCBzdGF0dXMpCiAgICAKZWxzZSBEZXBsb3ltZW50IEZhaWxlZAogICAgcHJvZHNlcnZlciAtPiBjb25maWc6IDMzYi4gRGVwbG95bWVudCBmYWlsdXJlXG4ocm9sbGJhY2sgcmVxdWlyZWQpCiAgICAKICAgIGNvbmZpZyAtPiBjb25maWc6IDM0Yi4gUm9sbGJhY2sgZXhlY3V0aW9uOlxuICAgIC0gU2VydmljZSByZXN0b3JhdGlvblxuICAgIC0gQmFja3VwIHJlY292ZXJ5XG4gICAgLSBDb25maWd1cmF0aW9uIHJldmVydFxuICAgIC0gU3lzdGVtIHZhbGlkYXRpb25cbiAgICAtIEluY2lkZW50IGxvZ2dpbmcKICAgIAogICAgY29uZmlnIC0+IGFkbWluOiAzNWIuIFJvbGxiYWNrIGNvbXBsZXRlZFxuKHN5c3RlbSByZXN0b3JlZCkKICAgIAogICAgYWRtaW4gLT4gc2VjdXJpdHk6IDM2Yi4gSW5jaWRlbnQgcmVwb3J0XG4oZGVwbG95bWVudCBmYWlsdXJlKQogICAgCiAgICBzZWN1cml0eSAtPiBwYXRjaG1nbXQ6IDM3Yi4gRmFpbHVyZSBhbmFseXNpc1xuKHJvb3QgY2F1c2UgaW52ZXN0aWdhdGlvbikKICAgIAogICAgcGF0Y2htZ210IC0+IHBhdGNobWdtdDogMzhiLiBJc3N1ZSByZXNvbHV0aW9uOlxuICAgIC0gRmFpbHVyZSBhbmFseXNpc1xuICAgIC0gQWx0ZXJuYXRpdmUgcGF0Y2hlc1xuICAgIC0gVmVuZG9yIGVzY2FsYXRpb25cbiAgICAtIFRpbWVsaW5lIGFkanVzdG1lbnQKZW5kCgpkZWFjdGl2YXRlIHByb2RzZXJ2ZXIKZGVhY3RpdmF0ZSBjb25maWcKZGVhY3RpdmF0ZSBtb25pdG9yCmRlYWN0aXZhdGUgcGF0Y2htZ210Cgo9PSBDb21wbGlhbmNlIGFuZCBSZXBvcnRpbmcgPT0KCmNvbXBsaWFuY2UgLT4gY29tcGxpYW5jZTogNDEuIENvbXBsaWFuY2UgdHJhY2tpbmc6XG4tIFBhdGNoIHN0YXR1c1xuLSBTTEEgY29tcGxpYW5jZVxuLSBSaXNrIG1ldHJpY3Ncbi0gQXVkaXQgdHJhaWxzXG4tIFJlZ3VsYXRvcnkgcmVxdWlyZW1lbnRzCgpjb21wbGlhbmNlIC0+IGNvbXBsaWFuY2U6IDQyLiBSZXBvcnQgZ2VuZXJhdGlvbjpcbi0gRXhlY3V0aXZlIGRhc2hib2FyZFxuLSBUZWNobmljYWwgcmVwb3J0c1xuLSBDb21wbGlhbmNlIHN0YXR1c1xuLSBSaXNrIGFzc2Vzc21lbnRzXG4tIFRyZW5kIGFuYWx5c2lzCgphbHQgQ29tcGxpYW5jZSBNZXQKICAgIGNvbXBsaWFuY2UgLT4gc2VjdXJpdHk6IDQzYS4gQ29tcGxpYW5jZSByZXBvcnRcbihyZXF1aXJlbWVudHMgc2F0aXNmaWVkKQogICAgCiAgICBzZWN1cml0eSAtPiBzZWN1cml0eTogNDRhLiBDb250aW51b3VzIGltcHJvdmVtZW50OlxuICAgIC0gUHJvY2VzcyBvcHRpbWl6YXRpb25cbiAgICAtIFRvb2wgZW5oYW5jZW1lbnRcbiAgICAtIFRyYWluaW5nIHVwZGF0ZXNcbiAgICAtIFBvbGljeSByZWZpbmVtZW50CiAgICAKZWxzZSBDb21wbGlhbmNlIEdhcAogICAgY29tcGxpYW5jZSAtPiBzZWN1cml0eTogNDNiLiBDb21wbGlhbmNlIGFsZXJ0XG4oZ2FwcyBpZGVudGlmaWVkKQogICAgCiAgICBzZWN1cml0eSAtPiBhZG1pbjogNDRiLiBSZW1lZGlhdGlvbiBwbGFuXG4oY29tcGxpYW5jZSBhY3Rpb25zKQogICAgCiAgICBhZG1pbiAtPiBhZG1pbjogNDViLiBHYXAgcmVtZWRpYXRpb246XG4gICAgLSBQcmlvcml0eSBwYXRjaGluZ1xuICAgIC0gUHJvY2VzcyBpbXByb3ZlbWVudFxuICAgIC0gUmVzb3VyY2UgYWxsb2NhdGlvblxuICAgIC0gVGltZWxpbmUgYWRqdXN0bWVudAplbmQKCmRlYWN0aXZhdGUgc2VjdXJpdHkKZGVhY3RpdmF0ZSBhZG1pbgpkZWFjdGl2YXRlIHNjYW5uZXIKZGVhY3RpdmF0ZSBjb21wbGlhbmNlCgo9PSBDb250aW51b3VzIE1vbml0b3JpbmcgPT0KCm1vbml0b3IgLT4gbW9uaXRvcjogNDYuIE9uZ29pbmcgbW9uaXRvcmluZzpcbi0gVGhyZWF0IGludGVsbGlnZW5jZVxuLSBOZXcgdnVsbmVyYWJpbGl0aWVzXG4tIFN5c3RlbSBjaGFuZ2VzXG4tIFBlcmZvcm1hbmNlIGltcGFjdFxuLSBTZWN1cml0eSBwb3N0dXJlCgptb25pdG9yIC0+IHNjYW5uZXI6IDQ3LiBUcmlnZ2VyIHBlcmlvZGljIHNjYW5zXG4oc2NoZWR1bGVkIGFzc2Vzc21lbnQpCmFjdGl2YXRlIHNjYW5uZXIKCnNjYW5uZXIgLT4gc2Nhbm5lcjogNDguIFJlZ3VsYXIgc2Nhbm5pbmc6XG4tIFdlZWtseSBxdWljayBzY2Fuc1xuLSBNb250aGx5IGZ1bGwgc2NhbnNcbi0gUXVhcnRlcmx5IGRlZXAgc2NhbnNcbi0gQW5udWFsIGFzc2Vzc21lbnRzXG4tIEFkLWhvYyBpbnZlc3RpZ2F0aW9ucwoKc2Nhbm5lciAtPiB2dWxuZGI6IDQ5LiBVcGRhdGUgdnVsbmVyYWJpbGl0eSBkYXRhXG4obGF0ZXN0IENWRSBmZWVkcykKYWN0aXZhdGUgdnVsbmRiCgp2dWxuZGIgLS0+IHNjYW5uZXI6IDUwLiBVcGRhdGVkIHNpZ25hdHVyZXNcbihuZXcgdnVsbmVyYWJpbGl0eSBkYXRhKQpkZWFjdGl2YXRlIHZ1bG5kYgoKc2Nhbm5lciAtPiBjb21wbGlhbmNlOiA1MS4gU2NhbiByZXN1bHRzXG4ob25nb2luZyBhc3Nlc3NtZW50KQphY3RpdmF0ZSBjb21wbGlhbmNlCgpjb21wbGlhbmNlIC0+IGNvbXBsaWFuY2U6IDUyLiBUcmVuZCBhbmFseXNpczpcbi0gVnVsbmVyYWJpbGl0eSB0cmVuZHNcbi0gUGF0Y2ggZWZmZWN0aXZlbmVzc1xuLSBSaXNrIHJlZHVjdGlvblxuLSBDb21wbGlhbmNlIG1ldHJpY3Ncbi0gUGVyZm9ybWFuY2UgaW1wYWN0CgpkZWFjdGl2YXRlIHNjYW5uZXIKZGVhY3RpdmF0ZSBjb21wbGlhbmNlCmRlYWN0aXZhdGUgbW9uaXRvcgoKbm90ZSByaWdodCBvZiBzY2FubmVyCiAgU2Nhbm5pbmcgQ2FwYWJpbGl0aWVzOgogIC0gTmV0d29yayB2dWxuZXJhYmlsaXR5IHNjYW5uaW5nCiAgLSBXZWIgYXBwbGljYXRpb24gdGVzdGluZwogIC0gRGF0YWJhc2Ugc2VjdXJpdHkgYXNzZXNzbWVudAogIC0gQ29uZmlndXJhdGlvbiBjb21wbGlhbmNlCiAgLSBNYWx3YXJlIGRldGVjdGlvbgplbmQgbm90ZQoKbm90ZSByaWdodCBvZiBwYXRjaG1nbXQKICBQYXRjaCBNYW5hZ2VtZW50OgogIC0gQXV0b21hdGVkIHBhdGNoIGRlcGxveW1lbnQKICAtIFJvbGxiYWNrIGNhcGFiaWxpdGllcwogIC0gVGVzdGluZyB3b3JrZmxvd3MKICAtIENoYW5nZSBtYW5hZ2VtZW50CiAgLSBWZW5kb3IgY29vcmRpbmF0aW9uCmVuZCBub3RlCgpub3RlIGxlZnQgb2YgY29tcGxpYW5jZQogIENvbXBsaWFuY2UgRnJhbWV3b3JrczoKICAtIFBDSSBEU1MKICAtIFNPWAogIC0gSElQQUEKICAtIElTTyAyNzAwMQogIC0gTklTVCBDeWJlcnNlY3VyaXR5IEZyYW1ld29yawplbmQgbm90ZQoKbm90ZSBsZWZ0IG9mIG1vbml0b3IKICBNb25pdG9yaW5nIE1ldHJpY3M6CiAgLSBWdWxuZXJhYmlsaXR5IGNvdW50CiAgLSBQYXRjaCBkZXBsb3ltZW50IHRpbWUKICAtIFN5c3RlbSBhdmFpbGFiaWxpdHkKICAtIFNlY3VyaXR5IGluY2lkZW50cwogIC0gQ29tcGxpYW5jZSBzdGF0dXMKZW5kIG5vdGUKCkBlbmR1bWw=;" vertex="1" parent="1">
          <mxGeometry x="40" y="40" width="400" height="300" as="geometry" />
        </mxCell>
      </root>
    </mxGraphModel>
  </diagram>
</mxfile>